<svg width="245" height="137" viewBox="0 0 245 137" fill="none" xmlns="http://www.w3.org/2000/svg">
<path d="M60.7766 136.836C60.5763 136.75 60.2163 136.673 59.9764 136.666C59.7366 136.659 58.9311 136.359 58.1864 136C55.1241 134.521 53.2261 131.408 53.2188 127.852C53.2173 127.114 53.1533 126.41 53.0766 126.289C52.9748 126.128 51.5671 126.055 47.8455 126.015C43.3386 125.967 42.6766 125.923 42.0818 125.626C41.1335 125.152 40.8036 124.546 40.6997 123.089C40.6507 122.402 40.5386 121.795 40.4506 121.74C40.3626 121.686 39.0015 121.613 37.4261 121.578C34.7257 121.519 30.9982 121.248 30.1924 121.052C29.9922 121.004 29.2139 120.863 28.463 120.739C27.3035 120.548 25.6021 120.148 23.0926 119.479C22.3081 119.27 20.8162 118.757 20.1798 118.477C19.8794 118.345 19.1012 118.004 18.4503 117.718C15.7341 116.526 11.986 114.023 9.73437 111.898C7.04239 109.357 4.22754 105.023 2.60472 100.921C1.5128 98.1613 0.95874 95.9704 0.224326 91.5085C-0.0751874 89.6888 -0.0746128 81.54 0.225077 79.2627C0.431906 77.6915 0.67549 76.1245 1.16261 73.2312C1.67346 70.197 4.4889 60.6851 5.03989 60.1319C5.10634 60.0652 5.1607 59.9034 5.1607 59.7723C5.1607 59.6413 5.35603 59.0998 5.59476 58.5691C5.8335 58.0383 6.29395 56.9873 6.61799 56.2333C7.32355 54.5917 9.74392 49.7471 10.4988 48.4655C10.7949 47.9628 11.1793 47.3049 11.3531 47.0033C16.9417 37.3071 24.9688 28.3825 33.1383 22.7824C36.3787 20.5611 37.3371 20.4168 38.9483 21.9079C39.5363 22.452 39.8189 22.6069 39.9619 22.4634C40.4811 21.9421 39.4903 20.4874 38.1834 19.8523C37.4962 19.5183 37.14 19.4643 36.1106 19.5383C35.0861 19.6119 34.6165 19.7655 33.4401 20.4116C32.0765 21.1607 30.0009 22.5231 29.3314 23.1087C29.0499 23.3549 29.0045 23.3522 28.9018 23.0836C28.5608 22.1914 29.8696 19.3444 31.1347 18.2264C32.9985 16.5792 35.5043 15.872 37.9688 16.2974C39.7543 16.6056 40.8439 17.1496 42.0656 18.3429C43.745 19.9831 44.6698 22.8489 44.2757 25.1912C43.7384 28.3844 41.6819 30.7372 38.7275 31.5385C37.4906 31.874 35.2666 31.7889 33.8923 31.3534C32.5781 30.937 32.1038 30.9814 32.1038 31.5209C32.1038 32.0161 33.4201 32.6074 35.303 32.9581C36.6568 33.2102 37.0944 33.222 38.1012 33.0336C41.5717 32.3844 43.9579 30.6547 45.2958 27.8183C46.1695 25.966 46.3748 24.4976 46.0456 22.4545C45.2024 17.2201 41.3901 14.0622 36.382 14.4498C34.1061 14.626 33.0454 15.0101 31.4335 16.2417C29.2321 17.9237 27.7347 20.839 27.7347 23.4429C27.7347 24.3798 27.9185 24.1608 24.7258 27.0273C22.4229 29.0949 19.9343 31.7003 17.842 34.234C17.1477 35.0748 16.4736 35.7628 16.344 35.7628C15.6893 35.7628 14.1943 32.3114 13.4463 29.0735C13.3036 28.4555 13.095 26.8647 12.9829 25.5384C12.5274 20.1511 13.8715 15.1307 17.0313 10.4164C18.2405 8.61236 21.6666 5.14585 23.0598 4.31673C23.6426 3.96991 24.5459 3.43413 25.067 3.12612C26.4447 2.31193 29.0502 1.22305 30.7328 0.758267C33.0408 0.12075 36.7491 -0.171539 39.0424 0.103297C41.3237 0.376689 42.0791 0.544976 44.2101 1.25456C46.5038 2.01835 47.9011 2.71649 50.2492 4.27197C54.5707 7.13471 58.175 12.042 59.5818 16.9785C60.4013 19.8543 60.5515 20.9798 60.5522 24.2481C60.5526 26.8892 60.4938 27.5022 60.0772 29.183C59.4277 31.8041 58.9896 32.9983 57.932 35.0317C55.1404 40.3984 50.2769 44.6332 44.7524 46.5073C41.3737 47.6536 40.1037 47.8728 36.8371 47.874C33.7756 47.8751 32.536 47.7073 29.9193 46.9375C27.6455 46.2687 25.2595 45.1121 23.2203 43.6903C22.5897 43.2506 21.9343 42.8909 21.7639 42.8909C21.1721 42.8909 18.0667 47.5559 15.3155 52.5779C14.1491 54.707 11.7144 59.7111 11.7144 59.9793C11.7144 60.0241 11.5171 60.495 11.2759 61.0257C10.307 63.1576 8.84386 67.6524 7.80843 71.6776C6.39885 77.1574 5.67572 84.0373 6.05518 88.3584C6.37207 91.9669 6.76823 94.1081 7.56793 96.5347C9.61145 102.736 12.6576 106.897 17.4928 110.094C20.0153 111.762 23.9189 113.45 26.87 114.15C29.4124 114.753 29.2678 114.73 34.0154 115.273C35.0166 115.387 36.8599 115.454 38.1114 115.421L40.387 115.36L40.5118 114.225C40.6783 112.71 41.0704 111.94 41.9203 111.461C42.5814 111.088 42.8548 111.065 46.7316 111.065C51.4232 111.065 51.0649 110.93 51.3845 112.819C52.4833 119.314 52.4985 119.381 52.8704 119.381C53.0945 119.381 53.1332 115.625 53.1505 92.2243C53.166 71.221 53.2221 64.843 53.3979 64.0773C54.2009 60.581 56.7002 57.9414 59.9655 57.1409C60.782 56.9408 71.8984 56.8953 122.491 56.8853C180.73 56.8737 184.077 56.8902 185.024 57.1945C187.439 57.9699 189.314 59.5683 190.386 61.7661C191.635 64.3258 191.578 62.6625 191.578 96.7939C191.578 128.014 191.563 128.806 190.91 130.804C189.964 133.702 187.401 136.02 184.33 136.757C183.468 136.964 173.082 137.005 122.218 137C88.5798 136.996 60.9771 136.923 60.7766 136.836ZM178.38 125.221C178.919 124.943 179.24 124.587 179.615 123.85L180.123 122.854L180.071 115.178L180.018 107.501L179.529 106.746C179.227 106.281 178.734 105.843 178.243 105.604C177.472 105.229 177.208 105.216 170.303 105.216C162.615 105.216 162.644 105.213 161.57 106.197C160.653 107.037 160.63 107.264 160.63 115.462C160.63 120.432 160.698 123.284 160.824 123.619C161.1 124.351 161.699 124.949 162.542 125.334C163.212 125.641 163.844 125.665 170.461 125.632C177.316 125.597 177.686 125.578 178.38 125.221ZM169.901 121.266C169.417 121.104 168.959 120.389 165.76 114.812C164.022 111.783 163.93 111.5 164.456 110.829L164.844 110.334H170.37H175.896L176.276 110.82C176.736 111.407 176.685 111.624 175.659 113.441C173.416 117.413 171.493 120.695 171.254 120.962C170.895 121.363 170.471 121.458 169.901 121.266ZM81.2827 124.599C82.6098 124.1 83.9688 122.859 84.728 121.453C85.3199 120.357 85.3523 120.203 85.3391 118.559C85.3234 116.6 85.0121 115.713 83.8701 114.373C82.4984 112.765 81.0142 112.109 78.7808 112.126C77.523 112.135 77.113 112.219 76.2469 112.645C74.7414 113.385 73.7898 114.313 73.0938 115.72C72.5095 116.901 72.4882 117.018 72.5507 118.714C72.6282 120.818 72.8806 121.431 74.3072 122.978C76.1894 125.019 78.6472 125.59 81.2827 124.599ZM110.619 124.867C111.191 124.717 111.966 124.4 112.342 124.161C113.376 123.505 114.55 122.126 115.059 120.97C115.454 120.075 115.507 119.725 115.453 118.379C115.378 116.5 114.775 115.085 113.545 113.902C112.23 112.637 111.297 112.264 109.262 112.191C107.605 112.132 107.434 112.161 106.319 112.696C104.982 113.336 103.761 114.565 103.086 115.949C102.729 116.681 102.661 117.103 102.665 118.559C102.669 120.09 102.728 120.41 103.17 121.271C103.866 122.625 104.966 123.764 106.132 124.337C107.842 125.177 108.939 125.306 110.619 124.867ZM141.323 124.685C143.154 124.037 144.838 122.229 145.427 120.28C146.346 117.239 144.754 113.981 141.654 112.558C140.985 112.251 140.444 112.162 139.25 112.162C137.816 112.162 137.438 112.239 136.236 112.776C134.848 113.397 133.648 114.808 132.986 116.601C132.494 117.93 132.491 118.992 132.972 120.427C133.544 122.131 134.748 123.614 136.18 124.379C137.598 125.136 139.697 125.261 141.323 124.685ZM151.981 103.281C152.49 103.012 152.843 102.632 153.164 102.005L153.621 101.113L153.575 86.3951C153.549 78.3005 153.481 71.3704 153.423 70.9948C153.283 70.0948 152.514 69.2963 151.515 69.0146C150.882 68.8361 141.818 68.7918 109.292 68.8083C86.5136 68.8198 67.5587 68.8829 67.1703 68.9484C66.1459 69.1212 65.3186 69.6776 64.9351 70.4519C64.6188 71.0905 64.5966 71.9765 64.5472 85.9339C64.5093 96.6279 64.5526 100.95 64.703 101.5C64.9223 102.301 65.5104 102.97 66.4201 103.452C66.9144 103.714 70.9648 103.738 109.11 103.702L151.255 103.663L151.981 103.281ZM80.2011 98.6001C80.0405 98.4388 79.9827 96.8671 79.9827 92.6661C79.9827 86.2222 80.0129 86.0511 81.3034 85.1937C82.1913 84.6038 83.5174 84.3805 86.0813 84.3894C89.476 84.4011 90.5374 84.8196 91.3638 86.4724C91.7754 87.2957 91.8158 87.5877 91.8158 89.7411C91.8158 92.4463 91.6353 93.2378 90.7933 94.2254C89.9751 95.1851 89.1782 95.3758 86.2633 95.3093L83.8967 95.2553L83.7902 94.2501C83.7317 93.6972 83.72 93.142 83.7642 93.0163C83.8228 92.8498 84.4714 92.7879 86.157 92.7879C87.7212 92.7879 88.569 92.714 88.7774 92.5594C89.0243 92.3763 89.1082 91.8958 89.1998 90.1377C89.3554 87.1549 89.4444 87.2314 85.8051 87.221C83.4378 87.2143 83.0509 87.2549 82.7664 87.5396C82.4701 87.8361 82.4367 88.3449 82.4009 93.1122C82.3654 97.8404 82.3305 98.3812 82.0475 98.5889C81.6492 98.8813 80.4883 98.8884 80.2011 98.6001ZM94.319 98.7012C94.0239 98.6166 94.0006 98.1746 94.0034 92.7288C94.0064 86.9819 94.0156 86.8314 94.413 86.1292C94.6921 85.6359 95.105 85.2674 95.7298 84.9541C96.5593 84.5381 96.9002 84.4904 99.5717 84.416C103.375 84.3101 104.162 84.563 105.208 86.2272C105.633 86.9018 105.651 87.0635 105.651 90.0152V93.0986L105.093 93.873C104.18 95.1385 103.329 95.4085 100.307 95.3927C98.881 95.3853 97.7039 95.2998 97.6007 95.1963C97.5003 95.0954 97.3758 94.6363 97.3242 94.176C97.1745 92.8425 97.2878 92.7879 100.202 92.7879C103.364 92.7879 103.285 92.8608 103.285 89.9426C103.285 87.2083 103.407 87.303 99.9026 87.3105C97.8859 87.3148 97.1011 87.3811 96.8559 87.5678C96.5527 87.7985 96.5208 88.2508 96.4687 93.0591C96.4375 95.9411 96.3404 98.3708 96.2529 98.4585C96.0532 98.6588 94.7439 98.8231 94.319 98.7012ZM67.9712 95.1182C66.7621 94.4979 66.4388 93.9331 66.3565 92.2973C66.2711 90.5988 66.552 89.6602 67.3587 88.9492C68.129 88.2701 68.6223 88.1896 71.6084 88.2556L74.0661 88.3099L74.1221 89.2979C74.1599 89.9645 74.1007 90.3352 73.94 90.4374C73.8091 90.5208 72.6194 90.5903 71.2963 90.5918C69.1057 90.5944 68.8737 90.6262 68.7021 90.9481C68.4145 91.4877 68.4766 92.1493 68.8465 92.4854C69.1262 92.7395 69.6312 92.7879 72.0042 92.7879C74.4645 92.7879 74.8661 92.7466 75.1176 92.4676C75.3382 92.2228 75.4199 91.6434 75.4644 90.008C75.5438 87.0846 75.7123 87.2162 71.8731 87.2029C70.0935 87.1967 68.7997 87.1167 68.6895 87.0061C68.4221 86.7376 68.2809 85.0696 68.4982 84.7459C68.6499 84.5199 69.2351 84.4717 71.8293 84.4717C75.2913 84.4717 75.8238 84.5855 76.8441 85.5434C77.652 86.3018 77.7959 86.9714 77.7971 89.9797C77.7982 92.4445 77.775 92.6077 77.2972 93.526C76.5976 94.8704 75.9459 95.175 73.3696 95.3613C69.8034 95.6192 68.8653 95.5769 67.9712 95.1182ZM110.842 95.3467L107.745 95.2553L107.69 94.1777C107.659 93.5851 107.705 93.0287 107.792 92.9414C107.879 92.854 110.273 92.7739 113.112 92.7633C118.265 92.744 118.274 92.7433 118.698 92.3173C119.192 91.8214 119.278 90.6947 118.865 90.1269C118.628 89.8008 118.294 89.7641 114.723 89.6725C110.325 89.5597 109.783 89.4218 108.515 88.0921C107.719 87.2587 107.438 86.0622 107.642 84.3803C107.788 83.172 107.987 82.7787 108.825 82.0393C109.854 81.1328 110.441 81.0352 115.3 80.9636C120.689 80.8842 120.701 80.8875 120.609 82.3759C120.574 82.9255 120.478 83.4474 120.394 83.5358C120.31 83.6242 118.283 83.6813 115.89 83.6627C112.897 83.6395 111.393 83.6955 111.073 83.842C110.198 84.2422 109.904 85.725 110.567 86.3908C111.017 86.8428 110.699 86.8154 114.936 86.768L118.486 86.7284L119.487 87.245C120.276 87.6521 120.614 87.9731 121.08 88.7588C121.604 89.641 121.672 89.9105 121.672 91.0964C121.672 92.9191 121.236 93.736 119.597 94.9894C119.165 95.3194 115.284 95.4778 110.842 95.3467ZM143.426 95.3588C140.919 95.2145 140.496 95.0771 139.745 94.1623C138.858 93.0819 138.784 92.5387 138.784 87.0753C138.784 80.8497 138.599 81.2684 141.443 81.0695C144.41 80.862 150.7 80.8786 151.268 81.0954C151.741 81.2762 151.756 81.3214 151.654 82.3094C151.596 82.8739 151.475 83.4096 151.385 83.4999C151.295 83.5901 149.083 83.6945 146.468 83.7318C143.854 83.769 141.629 83.8528 141.524 83.9179C141.212 84.1113 141.268 91.8984 141.585 92.3325C141.819 92.6537 142.159 92.681 146.399 92.7175C148.908 92.7391 151.13 92.8104 151.335 92.876C151.651 92.9766 151.71 93.1471 151.71 93.9658C151.71 94.5212 151.612 95.0159 151.482 95.1223C151.18 95.3694 146.168 95.5166 143.426 95.3588ZM125.586 95.0891C124.907 94.7829 124.123 93.9575 123.868 93.2786C123.75 92.9651 123.674 90.9802 123.674 88.1994C123.674 84.0807 123.708 83.5684 124.019 82.9565C124.797 81.4259 125.629 81.1028 129.103 80.9816C130.573 80.9304 132.881 80.9545 134.233 81.0351L136.691 81.1818L136.652 82.276C136.593 83.9302 136.746 83.8869 131.476 83.7379C127.073 83.6135 126.982 83.6183 126.606 83.9957C126.24 84.3627 126.223 84.5579 126.226 88.2642C126.227 90.4004 126.306 92.2715 126.401 92.4223C126.545 92.6513 127.392 92.7115 131.541 92.7879L136.509 92.8792V94.0673V95.2553L131.32 95.2953C127.293 95.3264 126.01 95.2803 125.586 95.0891ZM142.992 89.4651C142.504 89.2906 142.26 87.575 142.666 87.1678C143.16 86.6712 149.219 86.4394 150.347 86.8739C150.541 86.9486 150.617 87.2613 150.617 87.976C150.617 89.7652 150.748 89.7084 146.785 89.6447C144.89 89.6143 143.183 89.5334 142.992 89.4651ZM178.167 88.3348C178.943 88.0091 179.686 87.106 179.932 86.19C180.221 85.1143 180.227 71.7392 179.94 70.6975C179.643 69.6208 178.584 68.5074 177.652 68.2911C176.743 68.0804 164.285 68.0737 163.205 68.2833C162.212 68.4758 161.565 68.9498 161.043 69.8671C160.639 70.575 160.636 70.646 160.633 78.4018C160.63 85.7664 160.651 86.2629 160.981 86.9129C161.808 88.5402 161.957 88.5666 170.421 88.5761C176.063 88.5824 177.698 88.5315 178.167 88.3348ZM164.485 83.2262C163.946 82.6508 163.984 82.2564 164.71 80.8895C165.821 78.7968 169.376 72.9631 169.684 72.7285C170.572 72.052 171.196 72.6348 172.998 75.824C173.64 76.9613 174.509 78.4676 174.927 79.1713C176.138 81.2066 176.65 82.1812 176.65 82.4514C176.65 82.5897 176.398 82.9158 176.09 83.176L175.53 83.6492H170.205H164.881L164.485 83.2262ZM49.3985 98.1414C49.2483 98.086 48.9821 97.9152 48.8069 97.762C48.5186 97.5098 48.4883 97.0263 48.4883 92.6746C48.4883 88.1074 48.506 87.8564 48.8404 87.6767C49.3217 87.4181 50.7326 87.4378 51.0006 87.7068C51.1596 87.8664 51.219 89.2554 51.219 92.8114C51.219 97.0088 51.1787 97.7371 50.9329 97.9838C50.6517 98.2662 49.9357 98.3397 49.3985 98.1414ZM48.7896 80.3906C48.5252 80.0973 48.4883 79.4631 48.4883 75.2099C48.4883 70.7469 48.5147 70.3395 48.8212 70.061C49.2137 69.7044 50.6728 69.6487 51.0006 69.9778C51.1598 70.1377 51.219 71.5468 51.219 75.1738C51.219 80.8036 51.2382 80.7249 49.8689 80.7249C49.3464 80.7249 48.9919 80.6151 48.7896 80.3906Z" fill="white"/>
</svg>
